<?xml version="1.0" encoding="UTF-8"?>
<svg id="Layer_1" data-name="Layer 1" xmlns="http://www.w3.org/2000/svg" viewBox="0 0 185.59 61.14">
  <defs>
    <style>
      .cls-1 {
        letter-spacing: -.01em;
      }

      .cls-2 {
        letter-spacing: 0em;
      }

      .cls-3 {
        letter-spacing: -.05em;
      }

      .cls-4 {
        fill: #fff;
      }

      .cls-5 {
        letter-spacing: -.03em;
      }

      .cls-6 {
        letter-spacing: -.03em;
      }

      .cls-7 {
        font-family: Nexa-ExtraLight, Nexa;
        font-size: 8.31px;
        font-weight: 200;
      }

      .cls-8 {
        letter-spacing: -.01em;
      }

      .cls-9 {
        letter-spacing: 0em;
      }

      .cls-10 {
        font-family: Nexa-Heavy, Nexa;
        font-size: 33.33px;
        font-weight: 800;
      }

      .cls-10, .cls-11 {
        fill: #2b64f0;
      }

      .cls-12 {
        letter-spacing: -.02em;
      }
    </style>
  </defs>
  <rect class="cls-11" width="61.14" height="61.14" rx="18.9" ry="18.9"/>
  <g>
    <text class="cls-10" transform="translate(69.25 36.23)"><tspan class="cls-2" x="0" y="0">L</tspan><tspan class="cls-9" x="20.03" y="0">ego</tspan><tspan class="cls-8" x="80.21" y="0">r</tspan><tspan x="95.14" y="0">a</tspan></text>
    <text class="cls-7" transform="translate(146.57 49)"><tspan class="cls-1" x="0" y="0">B</tspan><tspan class="cls-5" x="5.67" y="0">y</tspan><tspan class="cls-6" x="9.98" y="0"> </tspan><tspan class="cls-3" x="11.94" y="0">V</tspan><tspan class="cls-12" x="17.25" y="0">e</tspan><tspan x="21.98" y="0">xion</tspan></text>
  </g>
  <g>
    <path class="cls-4" d="M44.21,27.2c-1.82,2.1-2.39,4.93-1.49,7.53l1.15,3.36-2.01-1.71c-2.41-2.05-5.98-2.66-8.71-1l-16.33,9.89c-.68.45-1.29.89-2.08,1.22,1.84-2.16,3.17-4.54,4.05-7.2.88-2.68,1.3-5.43,1.35-8.27.07-4.01-.5-7.98-1.63-11.81l10.54-8.97c.51,2.31.8,4.6.87,6.98.13,4.75-.73,9.45-2.54,13.84-1.53,3.82-3.72,7.2-6.37,10.4l10.37-8.29c.91-.75,1.58-1.62,2.07-2.68.82-1.75.98-3.7.49-5.57l-.99-2.93,2.49,2.15c2.18,1.88,5.09,2.55,7.81,1.55l3.17-1.06-2.21,2.59Z"/>
    <path class="cls-4" d="M30.91,45.86c-2.71-.42-5.33-.32-7.99.08-2.8.43-5.4,1.28-8.12,2.28,3.37-2.55,6.9-4.66,10.62-6.48,1.71-.8,3.38-1.52,5.18-2.06,4.07-1.23,8.07-1.34,11.95.58l-1.06,10.64c-.7-.73-1.44-1.32-2.27-1.88-2.5-1.66-5.28-2.71-8.3-3.16Z"/>
  </g>
</svg>