<?xml version="1.0" encoding="UTF-8"?>
<svg id="Layer_1" data-name="Layer 1" xmlns="http://www.w3.org/2000/svg" xmlns:xlink="http://www.w3.org/1999/xlink" viewBox="0 0 61.14 61.14">
  <defs>
    <style>
      .cls-1 {
        fill: #fff;
      }

      .cls-2 {
        fill: url(#linear-gradient);
      }
    </style>
    <linearGradient id="linear-gradient" x1="-3.27" y1="-3.27" x2="125.46" y2="125.46" gradientUnits="userSpaceOnUse">
      <stop offset="0" stop-color="#2b3af0"/>
      <stop offset="1" stop-color="#000"/>
    </linearGradient>
  </defs>
  <rect class="cls-2" width="61.14" height="61.14" rx="18.9" ry="18.9"/>
  <g>
    <path class="cls-1" d="M44.21,27.2c-1.82,2.1-2.39,4.93-1.49,7.53l1.15,3.36-2.01-1.71c-2.41-2.05-5.98-2.66-8.71-1l-16.33,9.89c-.68.45-1.29.89-2.08,1.22,1.84-2.16,3.17-4.54,4.05-7.2.88-2.68,1.3-5.43,1.35-8.27.07-4.01-.5-7.98-1.63-11.81l10.54-8.97c.51,2.31.8,4.6.87,6.98.13,4.75-.73,9.45-2.54,13.84-1.53,3.82-3.72,7.2-6.37,10.4l10.37-8.29c.91-.75,1.58-1.62,2.07-2.68.82-1.75.98-3.7.49-5.57l-.99-2.93,2.49,2.15c2.18,1.88,5.09,2.55,7.81,1.55l3.17-1.06-2.21,2.59Z"/>
    <path class="cls-1" d="M30.91,45.86c-2.71-.42-5.33-.32-7.99.08-2.8.43-5.4,1.28-8.12,2.28,3.37-2.55,6.9-4.66,10.62-6.48,1.71-.8,3.38-1.52,5.18-2.06,4.07-1.23,8.07-1.34,11.95.58l-1.06,10.64c-.7-.73-1.44-1.32-2.27-1.88-2.5-1.66-5.28-2.71-8.3-3.16Z"/>
  </g>
</svg>