<?xml version="1.0" encoding="UTF-8"?>
<svg id="Layer_1" data-name="Layer 1" xmlns="http://www.w3.org/2000/svg" xmlns:xlink="http://www.w3.org/1999/xlink" viewBox="0 0 183.62 61.14">
  <defs>
    <style>
      .cls-1 {
        fill: url(#linear-gradient-2);
      }

      .cls-2 {
        fill: #fff;
      }

      .cls-3 {
        fill: url(#linear-gradient-4);
      }

      .cls-4 {
        fill: url(#linear-gradient-3);
      }

      .cls-5 {
        fill: url(#linear-gradient-5);
      }

      .cls-6 {
        fill: url(#linear-gradient-7);
      }

      .cls-7 {
        fill: url(#linear-gradient-6);
      }

      .cls-8 {
        fill: url(#linear-gradient);
      }
    </style>
    <linearGradient id="linear-gradient" x1="-3.27" y1="-3.27" x2="125.46" y2="125.46" gradientUnits="userSpaceOnUse">
      <stop offset="0" stop-color="#2b3af0"/>
      <stop offset="1" stop-color="#000"/>
    </linearGradient>
    <linearGradient id="linear-gradient-2" x1="21.71" y1="-28.24" x2="150.43" y2="100.48" xlink:href="#linear-gradient"/>
    <linearGradient id="linear-gradient-3" x1="32.34" y1="-38.88" x2="161.07" y2="89.85" xlink:href="#linear-gradient"/>
    <linearGradient id="linear-gradient-4" x1="40.86" y1="-47.39" x2="169.58" y2="81.33" xlink:href="#linear-gradient"/>
    <linearGradient id="linear-gradient-5" x1="52.42" y1="-58.96" x2="181.15" y2="69.77" xlink:href="#linear-gradient"/>
    <linearGradient id="linear-gradient-6" x1="61.53" y1="-68.07" x2="190.26" y2="60.66" xlink:href="#linear-gradient"/>
    <linearGradient id="linear-gradient-7" x1="71.05" y1="-77.59" x2="199.78" y2="51.14" xlink:href="#linear-gradient"/>
  </defs>
  <rect class="cls-8" width="61.14" height="61.14" rx="18.9" ry="18.9"/>
  <g>
    <path class="cls-1" d="M71.78,12.9h5.47v18.4h11.73v4.93h-17.2V12.9Z"/>
    <path class="cls-4" d="M103.84,20.41c1.31.68,2.32,1.63,3.02,2.87.7,1.23,1.05,2.67,1.05,4.32,0,.53-.06,1.19-.17,1.97h-12.1c.16.84.61,1.53,1.37,2.05.76.52,1.72.78,2.9.78.82,0,1.62-.12,2.4-.37.78-.24,1.44-.59,2-1.03l2.73,2.93c-.93.87-2.04,1.53-3.32,2-1.28.47-2.64.7-4.08.7-1.91,0-3.57-.35-4.97-1.05-1.4-.7-2.48-1.69-3.23-2.98-.76-1.29-1.13-2.81-1.13-4.57s.37-3.19,1.12-4.5c.74-1.31,1.78-2.33,3.12-3.05s2.88-1.08,4.63-1.08,3.35.34,4.67,1.02ZM96.79,24.33c-.66.53-1.03,1.28-1.12,2.23h7.27c-.07-.96-.42-1.7-1.05-2.23s-1.48-.8-2.55-.8-1.89.27-2.55.8Z"/>
    <path class="cls-3" d="M127.08,35.64c.61.9.92,1.94.92,3.12,0,1.38-.38,2.59-1.13,3.65-.76,1.06-1.82,1.87-3.2,2.43-1.38.57-2.98.85-4.8.85s-3.33-.29-4.67-.87c-1.33-.58-2.36-1.4-3.08-2.47-.72-1.07-1.08-2.3-1.08-3.7,0-.36.01-.62.03-.8h5.03c-.04,1.09.26,1.93.92,2.53.66.6,1.6.9,2.85.9,1.11,0,2.01-.25,2.7-.75.69-.5,1.03-1.16,1.03-1.98s-.32-1.5-.95-1.95c-.63-.46-1.54-.68-2.72-.68-1.82,0-3.42-.34-4.78-1.03s-2.42-1.66-3.17-2.92c-.74-1.25-1.12-2.72-1.12-4.38s.38-3.03,1.15-4.28c.77-1.25,1.83-2.23,3.2-2.93,1.37-.7,2.93-1.05,4.68-1.05,1.35,0,2.6.27,3.73.8l1.93-2.4,3.83,2.77-2.2,2.57c1.11,1.27,1.67,2.78,1.67,4.53,0,1.22-.29,2.35-.88,3.38-.59,1.03-1.42,1.88-2.48,2.55,1.11.51,1.97,1.22,2.58,2.12ZM121.7,30.43c.71-.71,1.07-1.65,1.07-2.83s-.35-2.12-1.05-2.82-1.64-1.05-2.82-1.05-2.09.35-2.8,1.05c-.71.7-1.07,1.64-1.07,2.82s.35,2.09,1.07,2.82c.71.72,1.64,1.08,2.8,1.08s2.09-.35,2.8-1.07Z"/>
    <path class="cls-5" d="M134.58,35.51c-1.37-.72-2.42-1.73-3.15-3.02-.73-1.29-1.1-2.79-1.1-4.5s.37-3.21,1.1-4.5c.73-1.29,1.78-2.29,3.15-3.02,1.37-.72,2.96-1.08,4.78-1.08s3.42.36,4.8,1.08c1.38.72,2.43,1.73,3.17,3.02.73,1.29,1.1,2.79,1.1,4.5s-.37,3.21-1.1,4.5c-.73,1.29-1.79,2.29-3.17,3.02-1.38.72-2.98,1.08-4.8,1.08s-3.42-.36-4.78-1.08ZM142.16,31c.71-.78,1.07-1.78,1.07-3s-.36-2.22-1.07-3c-.71-.78-1.64-1.17-2.8-1.17s-2.06.39-2.77,1.17c-.71.78-1.07,1.78-1.07,3s.35,2.22,1.07,3c.71.78,1.63,1.17,2.77,1.17s2.09-.39,2.8-1.17Z"/>
    <path class="cls-7" d="M163.06,19.81c.76.28,1.41.68,1.97,1.22l-2.2,3.83c-.47-.29-.9-.5-1.3-.63-.4-.13-.82-.2-1.27-.2-1.11,0-1.99.36-2.63,1.07s-.97,1.76-.97,3.13v8h-5.23v-16.46h4.57l.4,2.07c1.07-1.62,2.53-2.43,4.4-2.43.76,0,1.51.14,2.27.42Z"/>
    <path class="cls-6" d="M183.62,19.76v16.46h-4.53l-.33-1.97c-1.4,1.53-3.22,2.3-5.47,2.3-1.53,0-2.89-.36-4.08-1.08-1.19-.72-2.12-1.73-2.78-3.03s-1-2.78-1-4.45.33-3.15,1-4.45,1.59-2.31,2.78-3.03,2.55-1.08,4.08-1.08c1.11,0,2.13.19,3.07.58s1.73.95,2.4,1.68l.33-1.93h4.53ZM177.36,31.01c.73-.77,1.1-1.77,1.1-3.02s-.37-2.25-1.1-3.02c-.73-.77-1.68-1.15-2.83-1.15s-2.09.39-2.82,1.17c-.72.78-1.08,1.78-1.08,3s.36,2.22,1.08,3c.72.78,1.66,1.17,2.82,1.17s2.1-.38,2.83-1.15Z"/>
  </g>
  <g>
    <path d="M151.58,46.56c.19.25.29.54.29.88,0,.48-.17.86-.52,1.14-.34.28-.82.42-1.42.42h-2.53v-5.81h2.53c.52,0,.94.14,1.25.41.32.27.47.64.47,1.09,0,.31-.08.59-.24.83-.16.24-.38.41-.65.51.34.11.61.29.81.54ZM150.94,43.85c-.25-.21-.58-.32-1-.32h-2.17v2.33h2.17c.43,0,.77-.1,1.01-.31.24-.21.36-.49.36-.85s-.12-.64-.37-.86ZM151.1,48.32c.27-.22.41-.51.41-.9s-.14-.67-.42-.89c-.28-.22-.66-.33-1.13-.33h-2.18v2.44h2.18c.49,0,.87-.11,1.14-.32Z"/>
    <path d="M156.06,44.89h.38l-2.66,6.1h-.38l.88-2.02-1.72-4.08h.38l.99,2.38.54,1.29,1.59-3.66Z"/>
    <path d="M163.59,43.18h.39l-2.39,5.81h-.42l-2.39-5.81h.39l1.31,3.18.91,2.21,2.21-5.39Z"/>
    <path d="M167.38,45.07c.31.17.55.41.72.71s.25.66.25,1.05c0,.11,0,.19,0,.24h-3.76c.04.52.21.92.52,1.22.31.3.71.45,1.2.45.3,0,.6-.06.87-.18s.49-.28.64-.48l.25.21c-.19.24-.45.44-.76.58-.31.14-.65.21-1,.21-.4,0-.76-.09-1.07-.27-.32-.18-.56-.44-.74-.76-.18-.32-.27-.69-.27-1.1s.09-.77.26-1.1.42-.57.73-.76.67-.27,1.07-.27.77.08,1.08.25ZM165.1,45.59c-.31.3-.48.68-.52,1.17h3.43c0-.32-.07-.6-.22-.84-.15-.24-.35-.43-.61-.57-.26-.14-.56-.2-.89-.2-.48,0-.88.15-1.19.44Z"/>
    <path d="M170.72,46.85l1.61,2.14h-.43l-1.39-1.86-.91,1.21-.49.65h-.42l1.59-2.14-1.47-1.96h.43l1.25,1.68.66-.86.61-.81h.43l-1.49,1.96Z"/>
    <path d="M173.11,43.83c-.06-.06-.09-.13-.09-.22s.03-.16.09-.22c.06-.06.13-.09.23-.09.09,0,.16.03.22.09.06.06.09.14.09.22s-.03.16-.09.22c-.06.06-.14.09-.22.09-.09,0-.17-.03-.23-.09ZM173.16,44.89h.35v4.1h-.35v-4.1Z"/>
    <path d="M175.62,48.8c-.32-.18-.57-.44-.75-.76-.18-.32-.27-.69-.27-1.09s.09-.77.27-1.09c.18-.32.43-.58.75-.76s.68-.27,1.08-.27.77.09,1.08.27c.32.18.57.44.75.76.18.32.27.69.27,1.09s-.09.77-.27,1.09c-.18.32-.43.58-.75.76-.32.18-.68.27-1.08.27s-.76-.09-1.08-.27ZM177.6,48.51c.27-.15.47-.37.63-.64s.23-.58.23-.92-.08-.64-.23-.92c-.15-.27-.36-.49-.63-.64-.27-.15-.56-.23-.9-.23s-.63.08-.9.23c-.27.16-.47.37-.62.64-.15.27-.22.58-.22.92s.07.64.22.92.36.49.62.64c.27.16.56.23.9.23s.63-.08.9-.23Z"/>
    <path d="M183.12,45.31c.31.32.46.76.46,1.32v2.37h-.35v-2.35c0-.48-.12-.84-.37-1.1-.24-.25-.59-.38-1.04-.38-.3,0-.58.07-.82.2-.24.14-.43.32-.56.56-.13.24-.2.5-.2.78v2.28h-.35v-4.1h.33v.81c.16-.27.38-.48.66-.63.28-.15.6-.23.95-.23.54,0,.97.16,1.27.47Z"/>
  </g>
  <g>
    <path class="cls-2" d="M44.21,27.2c-1.82,2.1-2.39,4.93-1.49,7.53l1.15,3.36-2.01-1.71c-2.41-2.05-5.98-2.66-8.71-1l-16.33,9.89c-.68.45-1.29.89-2.08,1.22,1.84-2.16,3.17-4.54,4.05-7.2.88-2.68,1.3-5.43,1.35-8.27.07-4.01-.5-7.98-1.63-11.81l10.54-8.97c.51,2.31.8,4.6.87,6.98.13,4.75-.73,9.45-2.54,13.84-1.53,3.82-3.72,7.2-6.37,10.4l10.37-8.29c.91-.75,1.58-1.62,2.07-2.68.82-1.75.98-3.7.49-5.57l-.99-2.93,2.49,2.15c2.18,1.88,5.09,2.55,7.81,1.55l3.17-1.06-2.21,2.59Z"/>
    <path class="cls-2" d="M30.91,45.86c-2.71-.42-5.33-.32-7.99.08-2.8.43-5.4,1.28-8.12,2.28,3.37-2.55,6.9-4.66,10.62-6.48,1.71-.8,3.38-1.52,5.18-2.06,4.07-1.23,8.07-1.34,11.95.58l-1.06,10.64c-.7-.73-1.44-1.32-2.27-1.88-2.5-1.66-5.28-2.71-8.3-3.16Z"/>
  </g>
</svg>